<?xml version="1.0" encoding="UTF-8" standalone="no"?>
<svg
   viewBox="0 0 188 101.33333"
   height="101.33333"
   width="188"
   xml:space="preserve"
   id="svg2"
   version="1.1"
   sodipodi:docname="block6-fig5.svg"
   inkscape:version="1.3.2 (091e20e, 2023-11-25, custom)"
   xmlns:inkscape="http://www.inkscape.org/namespaces/inkscape"
   xmlns:sodipodi="http://sodipodi.sourceforge.net/DTD/sodipodi-0.dtd"
   xmlns="http://www.w3.org/2000/svg"
   xmlns:svg="http://www.w3.org/2000/svg"
   xmlns:rdf="http://www.w3.org/1999/02/22-rdf-syntax-ns#"
   xmlns:cc="http://creativecommons.org/ns#"
   xmlns:dc="http://purl.org/dc/elements/1.1/"><sodipodi:namedview
     id="namedview1"
     pagecolor="#ffffff"
     bordercolor="#000000"
     borderopacity="0.25"
     inkscape:showpageshadow="2"
     inkscape:pageopacity="0.0"
     inkscape:pagecheckerboard="0"
     inkscape:deskcolor="#d1d1d1"
     inkscape:zoom="6.8351064"
     inkscape:cx="94"
     inkscape:cy="50.621012"
     inkscape:window-width="1920"
     inkscape:window-height="1191"
     inkscape:window-x="-9"
     inkscape:window-y="-9"
     inkscape:window-maximized="1"
     inkscape:current-layer="svg2"
     showgrid="false" /><metadata
     id="metadata8"><rdf:RDF><cc:Work
         rdf:about=""><dc:format>image/svg+xml</dc:format><dc:type
           rdf:resource="http://purl.org/dc/dcmitype/StillImage" /></cc:Work></rdf:RDF></metadata><defs
     id="defs6"><clipPath
       id="clipPath24"
       clipPathUnits="userSpaceOnUse"><path
         id="path22"
         d="M 0,0 H 141 V 76 H 0 Z" /></clipPath><clipPath
       id="clipPath34"
       clipPathUnits="userSpaceOnUse"><path
         id="path32"
         d="M 0.06,0 H 140.64601 V 75.944 H 0.06 Z" /></clipPath><clipPath
       id="clipPath48"
       clipPathUnits="userSpaceOnUse"><path
         id="path46"
         d="M 0.06,0 H 140.64601 V 75.944 H 0.06 Z" /></clipPath></defs><g
     transform="matrix(1.3333333,0,0,-1.3333333,0,101.33333)"
     id="g10"><g
       id="g12" /><g
       id="g14" /><g
       id="g16"><g
         id="g18"><g
           clip-path="url(#clipPath24)"
           id="g20"><g
             id="g26" /><g
             id="g28"><g
               clip-path="url(#clipPath34)"
               id="g30"><path
                 id="path36"
                 style="fill:none;stroke:#231f20;stroke-width:0.5;stroke-linecap:butt;stroke-linejoin:round;stroke-miterlimit:4;stroke-dasharray:none;stroke-opacity:1"
                 d="M 0,16.4 H 133.90201" /></g></g><g
             id="g38"><path
               id="path40"
               style="fill:#231f20;fill-opacity:1;fill-rule:nonzero;stroke:none"
               d="m 134.278,16.4 -1.40199,2.306001 0.079,0.052 3.76001,-1.493 c 1.31,-0.288 2.62,-0.576999 3.931,-0.865001 -1.311,-0.287999 -2.621,-0.576 -3.931,-0.863999 l -3.76001,-1.494 -0.079,0.04 L 134.278,16.4" /></g><g
             id="g42"><g
               clip-path="url(#clipPath48)"
               id="g44"><path
                 id="path50"
                 style="fill:none;stroke:#231f20;stroke-width:0.5;stroke-linecap:butt;stroke-linejoin:round;stroke-miterlimit:4;stroke-dasharray:none;stroke-opacity:1"
                 d="M 64.801003,0 V 69.201004" /></g></g><g
             id="g52"><path
               id="path54"
               style="fill:#231f20;fill-opacity:1;fill-rule:nonzero;stroke:none"
               d="m 64.801003,69.577003 -2.306,-1.402 -0.053,0.079 1.494004,3.759995 c 0.288002,1.310005 0.576995,2.620003 0.864998,3.93 0.288002,-1.309997 0.576004,-2.619995 0.864997,-3.93 l 1.493004,-3.759995 -0.03901,-0.079 -2.318992,1.402" /><path
               id="path56"
               style="fill:none;stroke:#231f20;stroke-width:1;stroke-linecap:butt;stroke-linejoin:round;stroke-miterlimit:4;stroke-dasharray:none;stroke-opacity:1"
               d="m 77.400002,30.529999 0.201004,0.225002 0.223999,0.200001 0.22499,0.224996 0.201012,0.225003 0.224999,0.2 L 78.701004,31.83 78.900002,32.029999 79.125,32.23 l 0.201004,0.225002 0.223991,0.200001 0.225007,0.2 0.201004,0.199997 0.448997,0.400002 0.200005,0.200001 0.225998,0.2 0.224998,0.199997 0.198998,0.200001 0.226005,0.174999 0.199997,0.200001 0.223999,0.174999 0.224999,0.200001 0.201004,0.174999 0.224998,0.175003 0.223999,0.174996 0.201004,0.175003 0.224999,0.174999 0.224998,0.174999 0.198998,0.175 0.226005,0.175003 0.199997,0.174995 0.223999,0.150002 0.224999,0.175003 0.201004,0.149997 0.224998,0.175 0.223999,0.150001 0.201004,0.149998 0.449997,0.299999 0.198998,0.150002 0.451004,0.299999 0.198997,0.125004 0.224999,0.149997 0.201004,0.125 0.224998,0.149998 0.224999,0.125004 0.198997,0.124996 0.226006,0.126003 0.224998,0.123997 0.198998,0.125004 0.451004,0.25 0.199997,0.124996 0.223999,0.100002 0.201004,0.125 0.449997,0.200001 0.200004,0.100002 0.224999,0.100998 0.224998,0.099 0.198998,0.100003 0.451004,0.2 0.199997,0.075 0.223999,0.1 0.201004,0.075 0.224998,0.075 0.224999,0.1 0.200004,0.075 0.224999,0.075 0.224998,0.075 0.199997,0.05 0.225006,0.075 0.224999,0.076 0.199997,0.049 0.224998,0.05 0.225006,0.075 0.199997,0.05 0.224999,0.05 0.200004,0.05 0.224999,0.051 0.224998,0.024 0.199997,0.05 0.225006,0.051 0.224999,0.024 0.199997,0.025 0.224998,0.05 0.225006,0.026 0.199997,0.024 0.224999,0.02499 h 0.200004 l 0.224999,0.02501 0.224998,0.025 h 0.425003 l 0.224999,0.025 h 0.424995 M 64.875,16.055 l 0.200005,0.275 0.224998,0.25 0.224999,0.275001 0.200004,0.25 0.224991,0.274998 0.200005,0.25 0.224998,0.275002 0.224998,0.25 0.200005,0.274999 0.224999,0.25 0.225997,0.275002 0.198998,0.25 0.225006,0.274998 0.224999,0.25 0.201004,0.275001 0.223999,0.25 0.22499,0.274998 0.201012,0.25 0.224999,0.25 0.198997,0.275001 0.451004,0.5 0.198998,0.275 0.449997,0.5 0.201004,0.25 0.223999,0.275001 0.224998,0.25 0.201004,0.25 0.224999,0.25 0.198989,0.25 0.450005,0.5 0.200005,0.25 0.449997,0.5 0.201004,0.25 0.223999,0.25 L 73.300003,26.08 73.5,26.33 l 0.226006,0.25 0.198997,0.25 0.224999,0.225002 0.226005,0.25 0.198998,0.224997 0.224998,0.25 0.224999,0.225002 0.201004,0.25 0.223991,0.224999 0.225006,0.225002 0.201004,0.25 0.224999,0.224996 0.198997,0.225003 0.224999,0.224998 0.226005,0.225002 0.19899,0.224999 0.450005,0.449999" /><path
               id="path58"
               style="fill:none;stroke:#231f20;stroke-width:1;stroke-linecap:butt;stroke-linejoin:round;stroke-miterlimit:4;stroke-dasharray:none;stroke-opacity:1"
               d="m 64.32422,16.506834 c -0.0067,-0.0078 -0.01466,-0.01469 -0.02197,-0.02197 l 0.673828,-0.779297 -0.200684,0.273926 -0.224121,0.250488 -0.225586,0.275391 z" /></g></g></g></g></g></svg>
